<svg width="34" height="34" viewBox="0 0 34 34" fill="none" xmlns="http://www.w3.org/2000/svg">
<path d="M17.2772 0.691406C18.7919 0.691406 20.2528 0.884766 21.66 1.27148C23.0673 1.6582 24.3832 2.21143 25.6078 2.93115C26.8324 3.65088 27.9442 4.51025 28.9432 5.50928C29.9423 6.5083 30.8016 7.62549 31.5214 8.86084C32.2411 10.0962 32.7943 11.4121 33.181 12.8086C33.5677 14.2051 33.7665 15.666 33.7772 17.1914C33.7772 18.7061 33.5839 20.167 33.1971 21.5742C32.8104 22.9814 32.2572 24.2974 31.5375 25.522C30.8177 26.7466 29.9584 27.8584 28.9594 28.8574C27.9603 29.8564 26.8431 30.7158 25.6078 31.4355C24.3724 32.1553 23.0565 32.7085 21.66 33.0952C20.2635 33.4819 18.8026 33.6807 17.2772 33.6914C15.7626 33.6914 14.3016 33.498 12.8944 33.1113C11.4872 32.7246 10.1713 32.1714 8.94666 31.4517C7.72205 30.7319 6.61023 29.8726 5.61121 28.8735C4.61218 27.8745 3.75281 26.7573 3.03308 25.522C2.31335 24.2866 1.76013 22.9761 1.37341 21.5903C0.986694 20.2046 0.787964 18.7383 0.777222 17.1914C0.777222 15.6768 0.970581 14.2158 1.3573 12.8086C1.74402 11.4014 2.29724 10.0854 3.01697 8.86084C3.73669 7.63623 4.59607 6.52441 5.59509 5.52539C6.59412 4.52637 7.7113 3.66699 8.94666 2.94727C10.182 2.22754 11.4926 1.67432 12.8783 1.2876C14.264 0.900879 15.7303 0.702148 17.2772 0.691406ZM17.2772 31.6289C18.5985 31.6289 19.8715 31.457 21.0961 31.1133C22.3207 30.7695 23.4701 30.2861 24.5443 29.6631C25.6185 29.04 26.5961 28.2827 27.4769 27.3911C28.3578 26.4995 29.1097 25.5273 29.7328 24.4746C30.3558 23.4219 30.8446 22.2725 31.1991 21.0264C31.5536 19.7803 31.7255 18.502 31.7147 17.1914C31.7147 15.8701 31.5428 14.5972 31.1991 13.3726C30.8553 12.1479 30.3719 10.9985 29.7489 9.92432C29.1259 8.8501 28.3685 7.87256 27.4769 6.9917C26.5853 6.11084 25.6132 5.35889 24.5604 4.73584C23.5077 4.11279 22.3583 3.62402 21.1122 3.26953C19.8661 2.91504 18.5878 2.74316 17.2772 2.75391C15.9559 2.75391 14.683 2.92578 13.4584 3.26953C12.2338 3.61328 11.0844 4.09668 10.0101 4.71973C8.93591 5.34277 7.95837 6.1001 7.07751 6.9917C6.19666 7.8833 5.4447 8.85547 4.82166 9.9082C4.19861 10.9609 3.70984 12.1104 3.35535 13.3564C3.00085 14.6025 2.82898 15.8809 2.83972 17.1914C2.83972 18.5127 3.0116 19.7856 3.35535 21.0103C3.6991 22.2349 4.1825 23.3843 4.80554 24.4585C5.42859 25.5327 6.18591 26.5103 7.07751 27.3911C7.96912 28.272 8.94128 29.0239 9.99402 29.647C11.0468 30.27 12.1962 30.7588 13.4423 31.1133C14.6884 31.4678 15.9667 31.6396 17.2772 31.6289ZM26.8969 17.4492L27.6703 15.1289H28.8788L27.5092 19.2539H26.3007L25.5272 16.9336L24.7538 19.2539H23.5453L22.1757 15.1289H23.3842L24.1576 17.4492L24.931 15.1289H26.1234L26.8969 17.4492ZM19.4203 15.1289H20.6288L19.2592 19.2539H18.0507L17.2772 16.9336L16.5038 19.2539H15.2953L13.9257 15.1289H15.1342L15.9076 17.4492L16.681 15.1289H17.8734L18.6469 17.4492L19.4203 15.1289ZM11.1703 15.1289H12.3788L11.0092 19.2539H9.80066L9.02722 16.9336L8.25378 19.2539H7.04529L5.67566 15.1289H6.88416L7.65759 17.4492L8.43103 15.1289H9.62341L10.3969 17.4492L11.1703 15.1289Z" fill="#E6E6E6"/>
</svg>
