<svg width="38" height="38" viewBox="0 0 38 38" fill="none" xmlns="http://www.w3.org/2000/svg">
<path d="M10.9831 17.326C13.2031 21.6889 16.7797 25.2502 21.1426 27.4856L24.5343 24.0939C24.9506 23.6777 25.5672 23.5389 26.1068 23.7239C27.8335 24.2943 29.6989 24.6027 31.6106 24.6027C32.4585 24.6027 33.1522 25.2964 33.1522 26.1443V31.5247C33.1522 32.3727 32.4585 33.0664 31.6106 33.0664C17.1343 33.0664 5.40222 21.3343 5.40222 6.85807C5.40222 6.01016 6.09597 5.31641 6.94389 5.31641H12.3397C13.1876 5.31641 13.8814 6.01016 13.8814 6.85807C13.8814 8.78516 14.1897 10.6352 14.7601 12.3618C14.9297 12.9014 14.8064 13.5027 14.3747 13.9343L10.9831 17.326Z" fill="#E6E6E6"/>
</svg>
