<svg width="36" height="36" viewBox="0 0 36 36" fill="none" xmlns="http://www.w3.org/2000/svg">
<path d="M17.6198 2.98828C25.6895 2.98828 32.2308 9.52963 32.2308 17.5993C32.2308 25.6689 25.6895 32.2103 17.6198 32.2103C15.0377 32.2147 12.501 31.5314 10.2705 30.2305L3.01466 32.2103L4.99006 24.9515C3.68816 22.7203 3.00429 20.1825 3.00881 17.5993C3.00881 9.52963 9.55016 2.98828 17.6198 2.98828ZM12.6404 10.7321L12.3482 10.7438C12.1592 10.7568 11.9746 10.8064 11.8046 10.8899C11.6462 10.9798 11.5015 11.092 11.3751 11.223C11.1997 11.3881 11.1004 11.5313 10.9937 11.6701C10.4533 12.3728 10.1623 13.2354 10.1667 14.1219C10.1697 14.8378 10.3567 15.5347 10.6489 16.1864C11.2465 17.5043 12.2298 18.8997 13.5273 20.1927C13.8399 20.504 14.1468 20.8166 14.477 21.1074C16.0892 22.5267 18.0103 23.5503 20.0876 24.0968L20.9175 24.2239C21.1878 24.2385 21.4581 24.2181 21.7299 24.2049C22.1553 24.1825 22.5707 24.0673 22.947 23.8674C23.1382 23.7686 23.3249 23.6613 23.5066 23.546C23.5066 23.546 23.5684 23.5041 23.6892 23.4145C23.8865 23.2684 24.0077 23.1646 24.1714 22.9937C24.2941 22.867 24.3964 22.72 24.4782 22.5524C24.5922 22.3143 24.7061 21.8599 24.7529 21.4814C24.788 21.1921 24.7777 21.0343 24.7734 20.9364C24.7675 20.7801 24.6375 20.6179 24.4958 20.5492L23.6454 20.1679C23.6454 20.1679 22.3742 19.6141 21.5969 19.2606C21.5156 19.2251 21.4284 19.2048 21.3398 19.2006C21.2398 19.1902 21.1387 19.2013 21.0434 19.2334C20.9482 19.2654 20.8609 19.3175 20.7875 19.3862C20.7802 19.3833 20.6823 19.4666 19.6259 20.7465C19.5653 20.828 19.4818 20.8895 19.386 20.9234C19.2902 20.9572 19.1866 20.9617 19.0882 20.9364C18.993 20.9111 18.8997 20.8788 18.8091 20.84C18.628 20.764 18.5651 20.7348 18.441 20.6822C17.6021 20.3168 16.8256 19.8223 16.1397 19.2167C15.9556 19.056 15.7847 18.8807 15.6093 18.7112C15.0346 18.1606 14.5336 17.5379 14.119 16.8585L14.0328 16.7197C13.9718 16.6259 13.9218 16.5254 13.8838 16.4202C13.8283 16.2054 13.9729 16.033 13.9729 16.033C13.9729 16.033 14.328 15.6443 14.4931 15.4339C14.6538 15.2294 14.7897 15.0307 14.8773 14.8889C15.0497 14.6113 15.1038 14.3264 15.0132 14.1058C14.6041 13.1064 14.1814 12.1124 13.745 11.1237C13.6588 10.9279 13.4031 10.7876 13.1708 10.7599C13.0919 10.7501 13.013 10.7423 12.9341 10.7365C12.7379 10.7252 12.5412 10.7272 12.3452 10.7423L12.6404 10.7321Z" fill="#FFAB00"/>
</svg>
