<svg width="36" height="36" viewBox="0 0 36 36" fill="none" xmlns="http://www.w3.org/2000/svg">
<path d="M19.578 2.98828C21.2218 2.99266 22.0561 3.00143 22.7764 3.02189L23.0599 3.03211C23.3871 3.0438 23.71 3.05841 24.1002 3.07595C25.6548 3.149 26.7155 3.39447 27.6462 3.75536C28.6106 4.12648 29.4229 4.6291 30.2353 5.44001C30.9786 6.17017 31.5535 7.05375 31.92 8.02908C32.2809 8.9598 32.5263 10.0206 32.5994 11.5766C32.6169 11.9653 32.6315 12.2882 32.6432 12.6169L32.652 12.9004C32.6739 13.6192 32.6827 14.4535 32.6856 16.0973L32.687 17.1873V19.1013C32.6906 20.167 32.6794 21.2328 32.6534 22.2982L32.6447 22.5816C32.633 22.9104 32.6184 23.2333 32.6008 23.6219C32.5278 25.178 32.2794 26.2373 31.92 27.1695C31.5535 28.1448 30.9786 29.0284 30.2353 29.7586C29.5052 30.5018 28.6216 31.0767 27.6462 31.4432C26.7155 31.8041 25.6548 32.0496 24.1002 32.1226L23.0599 32.1665L22.7764 32.1752C22.0561 32.1957 21.2218 32.2059 19.578 32.2088L18.4881 32.2103H16.5755C15.5093 32.214 14.443 32.2028 13.3771 32.1767L13.0937 32.1679C12.7468 32.1548 12.4001 32.1397 12.0534 32.1226C10.4988 32.0496 9.43801 31.8041 8.50583 31.4432C7.53103 31.0766 6.64796 30.5016 5.91822 29.7586C5.17444 29.0285 4.59901 28.1449 4.23211 27.1695C3.87122 26.2388 3.62575 25.178 3.5527 23.6219L3.50887 22.5816L3.50156 22.2982C3.47463 21.2328 3.46245 20.167 3.46503 19.1013V16.0973C3.46099 15.0315 3.47171 13.9658 3.49718 12.9004L3.50741 12.6169C3.51909 12.2882 3.53371 11.9653 3.55124 11.5766C3.62429 10.0206 3.86976 8.96126 4.23065 8.02908C4.5984 7.05335 5.17485 6.16973 5.91968 5.44001C6.649 4.69711 7.53155 4.1222 8.50583 3.75536C9.43801 3.39447 10.4973 3.149 12.0534 3.07595C12.442 3.05841 12.7664 3.0438 13.0937 3.03211L13.3771 3.02335C14.4426 2.99739 15.5083 2.98619 16.574 2.98974L19.578 2.98828ZM18.076 10.2938C16.1385 10.2938 14.2803 11.0635 12.9103 12.4335C11.5402 13.8036 10.7705 15.6617 10.7705 17.5993C10.7705 19.5368 11.5402 21.395 12.9103 22.7651C14.2803 24.1351 16.1385 24.9048 18.076 24.9048C20.0136 24.9048 21.8718 24.1351 23.2418 22.7651C24.6119 21.395 25.3815 19.5368 25.3815 17.5993C25.3815 15.6617 24.6119 13.8036 23.2418 12.4335C21.8718 11.0635 20.0136 10.2938 18.076 10.2938ZM18.076 13.216C18.6517 13.2159 19.2217 13.3292 19.7535 13.5494C20.2854 13.7696 20.7686 14.0923 21.1757 14.4993C21.5828 14.9063 21.9058 15.3894 22.1261 15.9212C22.3465 16.453 22.46 17.0229 22.4601 17.5986C22.4602 18.1742 22.3469 18.7442 22.1267 19.276C21.9065 19.8079 21.5837 20.2911 21.1767 20.6982C20.7698 21.1053 20.2866 21.4283 19.7549 21.6486C19.2231 21.869 18.6531 21.9825 18.0775 21.9826C16.915 21.9826 15.8001 21.5208 14.978 20.6987C14.156 19.8767 13.6942 18.7618 13.6942 17.5993C13.6942 16.4368 14.156 15.3219 14.978 14.4998C15.8001 13.6778 16.915 13.216 18.0775 13.216M25.7483 8.10213C25.2639 8.10213 24.7993 8.29455 24.4568 8.63707C24.1143 8.97958 23.9219 9.44412 23.9219 9.92851C23.9219 10.4129 24.1143 10.8774 24.4568 11.22C24.7993 11.5625 25.2639 11.7549 25.7483 11.7549C26.2327 11.7549 26.6972 11.5625 27.0397 11.22C27.3822 10.8774 27.5746 10.4129 27.5746 9.92851C27.5746 9.44412 27.3822 8.97958 27.0397 8.63707C26.6972 8.29455 26.2327 8.10213 25.7483 8.10213Z" fill="#FFAB00"/>
</svg>
