<svg width="21" height="18" viewBox="0 0 21 18" fill="none" xmlns="http://www.w3.org/2000/svg">
<path d="M20.0987 4.165L17.7237 2.335C17.5623 2.23143 17.3868 2.15161 17.2027 2.098C17.0194 2.03817 16.8284 2.00517 16.6357 2H9.79968L10.6007 7H16.6357C16.7997 7 17.0047 6.963 17.2017 6.902C17.3987 6.841 17.5887 6.757 17.7227 6.666L20.0977 4.834C20.2327 4.743 20.2997 4.622 20.2997 4.5C20.2997 4.378 20.2327 4.257 20.0987 4.165ZM8.79968 0H7.79968C7.66707 0 7.5399 0.0526784 7.44613 0.146447C7.35236 0.240215 7.29968 0.367392 7.29968 0.5V4H3.96368C3.79768 4 3.59368 4.037 3.39668 4.099C3.19868 4.159 3.00968 4.242 2.87568 4.335L0.500683 6.165C0.365683 6.256 0.299683 6.378 0.299683 6.5C0.299683 6.621 0.365683 6.742 0.500683 6.835L2.87568 8.667C3.00968 8.758 3.19868 8.842 3.39668 8.902C3.59368 8.963 3.79768 9 3.96368 9H7.29968V17.5C7.29968 17.6326 7.35236 17.7598 7.44613 17.8536C7.5399 17.9473 7.66707 18 7.79968 18H8.79968C8.93229 18 9.05947 17.9473 9.15324 17.8536C9.247 17.7598 9.29968 17.6326 9.29968 17.5V0.5C9.29968 0.367392 9.247 0.240215 9.15324 0.146447C9.05947 0.0526784 8.93229 0 8.79968 0Z" fill="black"/>
</svg>
