<svg width="33" height="27" viewBox="0 0 33 27" fill="none" xmlns="http://www.w3.org/2000/svg">
<path d="M12.1078 1.30169C12.3686 1.02367 12.7292 0.860617 13.1102 0.848396C13.4912 0.836175 13.8614 0.975785 14.1395 1.23652V12.3474H31.125C31.5062 12.3474 31.8719 12.4989 32.1415 12.7685C32.4111 13.0381 32.5625 13.4037 32.5625 13.7849C32.5625 14.1662 32.4111 14.5318 32.1415 14.8014C31.8719 15.071 31.5062 15.2224 31.125 15.2224H14.1395V26.3334C13.8614 26.5941 13.4912 26.7337 13.1102 26.7215C12.7292 26.7093 12.3686 26.5462 12.1078 26.2682L1.32658 14.7682C1.07675 14.5017 0.937714 14.1502 0.937714 13.7849C0.937714 13.4197 1.07675 13.0681 1.32658 12.8017L12.1078 1.30169Z" fill="#FFAB00"/>
</svg>
