<svg width="33" height="27" viewBox="0 0 33 27" fill="none" xmlns="http://www.w3.org/2000/svg">
<path d="M21.3922 26.2686C21.1314 26.5466 20.7708 26.7097 20.3898 26.7219C20.0088 26.7341 19.6386 26.5945 19.3605 26.3338V15.2229H2.375C1.99375 15.2229 1.62811 15.0714 1.35853 14.8018C1.08895 14.5323 0.9375 14.1666 0.9375 13.7854C0.9375 13.4041 1.08895 13.0385 1.35853 12.7689C1.62811 12.4993 1.99375 12.3479 2.375 12.3479H19.3605V1.23696C19.6386 0.976223 20.0088 0.836613 20.3898 0.848833C20.7708 0.861055 21.1314 1.02411 21.3922 1.30213L32.1734 12.8021C32.4232 13.0686 32.5623 13.4201 32.5623 13.7854C32.5623 14.1506 32.4232 14.5022 32.1734 14.7686L21.3922 26.2686Z" fill="#FFAB00"/>
</svg>
